<svg width="39" height="31" viewBox="0 0 39 31" fill="none" xmlns="http://www.w3.org/2000/svg">
<path d="M0.0909605 31V29.6667C2.48625 27.127 4.57834 24.8571 6.36723 22.8571C8.15612 20.8254 9.64181 18.9841 10.8243 17.3333C12.0371 15.6508 12.9315 14.1111 13.5076 12.7143C14.114 11.2857 14.4172 9.90476 14.4172 8.57143C14.4172 6.66667 13.9018 5.06349 12.8709 3.7619C11.8703 2.46032 10.2785 1.80952 8.09548 1.80952C6.76139 1.80952 5.51827 2.19048 4.3661 2.95238C3.21394 3.71429 2.19821 4.66667 1.31893 5.80952L0 4.47619C1.09153 3.20635 2.28917 2.14286 3.59294 1.28571C4.92702 0.428571 6.48851 0 8.2774 0C10.8849 0 12.9012 0.777777 14.3263 2.33333C15.7513 3.88889 16.4638 5.95238 16.4638 8.52381C16.4638 10.0476 16.1455 11.5714 15.5088 13.0952C14.872 14.5873 13.9776 16.1746 12.8254 17.8571C11.6733 19.5079 10.2634 21.2857 8.59576 23.1905C6.95847 25.0635 5.13927 27.1111 3.13814 29.3333C3.92646 29.2698 4.72994 29.2222 5.54859 29.1905C6.39755 29.127 7.21619 29.0952 8.00452 29.0952H17.9192V31H0.0909605Z" fill="#88BF1F"/>
<path d="M23.8096 31V29.1429H30.6316V3.90476H25.4469V2.47619C26.6294 2.25397 27.6754 1.98413 28.585 1.66666C29.525 1.3492 30.3436 0.984126 31.041 0.571428H32.6782V29.1429H39V31H23.8096Z" fill="#88BF1F"/>
</svg>
