<svg width="22" height="22" viewBox="0 0 22 22" fill="none" xmlns="http://www.w3.org/2000/svg">
<path d="M20.7862 0H1.21379C0.891875 0 0.583142 0.127881 0.355512 0.355512C0.127881 0.583142 0 0.891875 0 1.21379L0 20.7862C0 21.1081 0.127881 21.4169 0.355512 21.6445C0.583142 21.8721 0.891875 22 1.21379 22H11.7586V13.4921H8.89483V10.1617H11.7586V7.71138C11.7586 4.87034 13.4959 3.32276 16.0297 3.32276C16.8835 3.3209 17.7369 3.36394 18.5862 3.45172V6.42172H16.8414C15.4607 6.42172 15.1914 7.07414 15.1914 8.03759V10.1579H18.4914L18.0628 13.4883H15.1724V22H20.7862C21.1081 22 21.4169 21.8721 21.6445 21.6445C21.8721 21.4169 22 21.1081 22 20.7862V1.21379C22 0.891875 21.8721 0.583142 21.6445 0.355512C21.4169 0.127881 21.1081 0 20.7862 0Z" fill="black"/>
</svg>
