<svg width="39" height="33" viewBox="0 0 39 33" fill="none" xmlns="http://www.w3.org/2000/svg">
<path d="M10.5 28.4999C14 29.8543 16.4888 30.7237 20.5 31.3686C25.8208 32.2241 32 31.7374 34 31.3686C36 30.9999 37.1273 30.3621 37.1998 28.8686C37.2456 27.926 36.7998 27.1686 36.1998 26.6686C36.7998 26.0686 37.1998 25.4124 37.1998 24.4686C37.1998 23.5249 36.7998 22.7686 36.1998 22.2686C36.7998 21.6686 37.1998 21.0124 37.1998 20.0686C37.1998 19.1249 36.7998 18.3686 36.1998 17.8686C36.7998 17.2686 37.2045 16.6124 37.1998 15.6686C37.1934 14.3793 36.3998 13.3686 35.2998 12.9686C35.2998 12.9686 34.7528 12.8396 34.3998 12.7686C30.9923 12.0841 25.5 12.7686 25.5 12.7686C25.9 11.9686 27 10.3686 27 7.36855C27 4.36855 26.5614 1.53259 24.6998 1.16865C23.8366 0.999893 23.0964 0.961142 22.2998 1.46865C21.4581 2.00484 20.9997 2.67071 20.9998 3.66865C21 4.9999 21.0117 6.67343 20.5 8.4999C20.0034 10.2726 19.7643 11.2161 18.5 12.7686C17.6143 13.8563 16.5839 14.804 15.2998 15.3686C13.5839 16.1229 10.5 15.3686 10.5 15.3686" stroke="#8ABF42" stroke-width="2"/>
<rect x="1" y="12" width="10" height="20" rx="2" stroke="#8ABF42" stroke-width="2"/>
</svg>
