<svg width="35" height="55" viewBox="0 0 35 55" fill="none" xmlns="http://www.w3.org/2000/svg">
<path d="M8.77707 45.8836L1 53.8H34L30.4836 45.8836H8.77707Z" fill="white"/>
<path d="M30.4836 45.8836C30.4836 45.8836 30.4836 40.2137 30.4836 32.5952C30.4836 21.8514 23.4508 16.4795 23.4508 16.4795H19.2101M30.4836 45.8836L34 53.8H1L8.77707 45.8836H30.4836ZM19.2101 16.4795L27.5082 7.71487L25.8852 6.01849L22.9098 2.90845L16.6885 9.41126L9.92623 16.4795M19.2101 16.4795H9.92623M18.8525 45.8836V34.857M18.8525 34.857H3.43443M18.8525 34.857V23.8305H6.68033V16.4795H9.92623" stroke="#8ABF42" stroke-width="2" stroke-linejoin="round"/>
<path d="M24.8337 5.45301L29.1115 1" stroke="#8ABF42" stroke-width="2"/>
<path d="M7.1106 39.8049H11.3884M15.6662 39.8049H11.3884M11.3884 39.8049V45.5302" stroke="#8ABF42" stroke-width="2"/>
<path d="M11.3894 30.2626V23.9011" stroke="#8ABF42" stroke-width="2"/>
</svg>
