<svg width="30" height="22" viewBox="0 0 30 22" fill="none" xmlns="http://www.w3.org/2000/svg">
<path d="M16.9563 21.998C16.3116 21.998 15.4225 22.0041 14.5363 21.9949C13.5059 21.9857 12.4755 21.9765 11.448 21.9489C10.0408 21.9091 8.63356 21.8753 7.23221 21.7864C6.1017 21.7159 4.97414 21.6116 3.85247 21.4552C2.37458 21.2498 1.32062 20.4157 0.755365 18.9622C0.525731 18.3764 0.446243 17.7509 0.360866 17.1284C0.196001 15.9232 0.104737 14.712 0.0664644 13.4976C0.0370242 12.5194 -0.0159681 11.5381 0.00464002 10.5568C0.0340802 9.21063 0.0988486 7.86137 0.196001 6.51823C0.26077 5.64428 0.381474 4.77339 0.525731 3.90863C0.775973 2.41217 1.56791 1.34196 2.93688 0.774654C3.41087 0.578397 3.91135 0.492534 4.41478 0.45267C5.80141 0.336142 7.19099 0.216548 8.58057 0.149085C10.0791 0.0754885 11.5805 0.0570894 13.079 0.0233578C13.9328 0.00495869 14.7866 -0.00424085 15.6403 0.00189218C16.6119 0.0080252 17.5834 0.0202913 18.552 0.0478899C19.9592 0.0908211 21.3664 0.124553 22.7678 0.210415C23.8983 0.280945 25.0259 0.385206 26.1475 0.541599C27.6254 0.747055 28.6794 1.58115 29.2446 3.03467C29.4743 3.62038 29.5538 4.24595 29.6391 4.86845C29.804 6.07359 29.8953 7.28486 29.9335 8.4992C29.963 9.47742 30.016 10.4587 29.9954 11.44C29.9659 12.7862 29.9012 14.1355 29.804 15.4786C29.7392 16.3525 29.6185 17.2234 29.4743 18.0882C29.224 19.5847 28.4321 20.6518 27.0631 21.2222C26.5803 21.4215 26.068 21.5074 25.5558 21.5472C24.1691 21.6607 22.7796 21.7772 21.39 21.8477C19.9916 21.9213 18.5932 21.9459 16.9563 21.998ZM11.9397 6.34958C11.9397 9.45902 11.9397 12.5409 11.9397 15.6472C14.5599 14.0956 17.1624 12.5562 19.7943 10.9984C17.1565 9.43756 14.5569 7.89817 11.9397 6.34958Z" fill="black"/>
<path d="M11.9404 6.34961C14.5577 7.8982 17.1572 9.43759 19.7951 10.9984C17.1631 12.5562 14.5606 14.0956 11.9404 15.6473C11.9404 12.5409 11.9404 9.45599 11.9404 6.34961Z" fill="#E0E0E0"/>
</svg>
