<svg xmlns="http://www.w3.org/2000/svg">
    <symbol id="logo" width="128" height="44" viewBox="0 0 128 44" >
        <g>
            <path fill-rule="evenodd" clip-rule="evenodd" d="M6.12588 11.3707C9.03727 11.4696 12.1494 11.5685 15.6632 11.5685C17.0687 11.5685 18.3738 11.4696 19.6789 11.3707V9.7887C19.6789 8.10782 19.3777 6.62468 18.6749 5.14154C18.2734 4.25166 17.5706 3.46065 16.5667 2.8674C15.5628 2.27414 14.3581 1.97752 13.053 1.97752C10.9447 1.97752 9.33844 2.76852 8.03334 4.25166C6.82863 5.83367 6.12588 8.20669 6.12588 11.3707ZM6.02549 13.546C6.12588 17.2044 7.02942 20.0718 8.83648 21.9504C10.6435 23.8291 12.9526 24.8178 15.864 24.8178C17.1691 24.8178 18.4742 24.6201 19.7793 24.1257C21.0844 23.7302 22.3895 23.0381 23.5942 22.1482L24.0961 22.5437L23.1926 24.9167C21.6867 25.8066 20.0804 26.4987 18.3738 26.9931C16.7675 27.4875 15.0608 27.6852 13.2537 27.6852C9.43884 27.6852 6.42706 26.4987 4.01764 24.0268C1.70862 21.6538 0.503906 18.3909 0.503906 14.2381C0.503906 11.0741 1.10626 8.30557 2.51176 6.03142C3.41529 4.64716 5.02157 3.2629 7.33059 1.97752C9.63962 0.692131 11.9486 0 14.0569 0C17.3698 0 19.98 0.988758 21.8875 2.96627C23.795 4.94379 24.7989 7.61344 24.7989 11.173L24.6985 12.8539C23.4938 13.1505 22.2891 13.3482 21.1848 13.4471C19.1769 13.6449 16.4663 13.6449 12.8522 13.6449H6.02549V13.546Z" fill="white"/>
            <path fill-rule="evenodd" clip-rule="evenodd" d="M50.5982 23.2358L51.4014 23.9279L50.1967 25.7077C48.8916 26.3998 47.5865 26.8942 46.2814 27.2897C44.9763 27.5864 43.5708 27.7841 42.1653 27.7841C39.4547 27.7841 37.0453 27.2897 35.1378 26.2021C33.2303 25.1145 31.7245 23.6313 30.7205 21.6538C29.7166 19.6763 29.1143 17.3033 29.1143 14.5347C29.1143 12.1617 29.5158 9.98646 30.319 8.20669C31.1221 6.42693 32.2264 5.04267 33.7323 3.95503C35.1378 2.96627 36.9449 1.97752 39.1535 0.988758C40.6594 0.296627 42.3661 0 44.2735 0C45.679 0 46.9841 0.0988758 47.988 0.395503C48.992 0.593255 50.0963 1.08763 51.301 1.68089C50.8994 4.15278 50.5982 6.62468 50.5982 9.09658H48.8916V7.61344C48.8916 6.42693 48.6908 5.53705 48.3896 5.04267C48.0884 4.54829 47.2853 4.05391 45.9802 3.55953C44.7755 3.06515 43.37 2.8674 41.8641 2.8674C39.3543 2.8674 37.3464 3.65841 35.9409 5.14154C34.5354 6.72356 33.8327 8.9977 33.8327 12.0628C33.8327 16.0179 34.8366 19.1819 36.8445 21.5549C38.6515 23.7302 40.9606 24.8178 43.872 24.8178C44.9763 24.8178 46.0806 24.719 47.1849 24.4223C48.3896 24.1257 49.4939 23.7302 50.5982 23.2358Z" fill="white"/>
            <path fill-rule="evenodd" clip-rule="evenodd" d="M60.1351 11.6673C60.1351 15.5235 60.9382 18.8853 62.4441 21.6538C64.0504 24.4223 66.259 25.8066 69.1704 25.8066C71.379 25.8066 73.1861 24.9167 74.5916 23.2358C75.9971 21.5549 76.6998 18.8853 76.6998 15.4246C76.6998 12.5572 76.2982 10.0853 75.4951 8.00894C74.692 5.93255 73.5877 4.44941 72.2826 3.46065C70.9774 2.4719 69.4716 2.07639 67.8653 2.07639C66.3594 2.07639 65.0543 2.4719 63.95 3.16403C62.7453 3.95503 61.9421 4.94379 61.3398 6.1303C60.4362 7.81119 60.1351 9.68983 60.1351 11.6673ZM54.7139 13.7437C54.7139 11.173 55.3162 8.79995 56.5209 6.72356C57.7256 4.64716 59.4323 2.96627 61.5406 1.77976C63.6488 0.593255 66.1586 0 68.8692 0C72.8849 0 75.9971 1.18651 78.4065 3.55953C80.8159 5.93255 82.0206 9.09658 82.0206 13.0516C82.0206 17.6988 80.5147 21.3572 77.3022 24.1257C74.4912 26.5976 71.1782 27.7841 67.2629 27.7841C63.5484 27.7841 60.5366 26.4987 58.1272 24.0268C55.9186 21.4561 54.7139 17.9954 54.7139 13.7437Z" fill="white"/>
            <path fill-rule="evenodd" clip-rule="evenodd" d="M98.0843 1.87889C97.6827 1.68114 97.0803 1.48339 96.5784 1.48339C94.8717 1.48339 94.7713 3.55978 94.7713 4.35079C94.7713 5.63617 94.8717 7.02043 96.1768 7.02043C96.8796 7.02043 97.7831 6.42718 97.8835 6.3283L97.9839 6.22943V1.87889H98.0843ZM99.289 5.14179L99.3894 8.8002C99.4898 10.7777 98.1846 11.5687 96.5784 11.5687C95.7752 11.5687 94.7713 11.371 94.2693 11.0743C94.169 10.9755 93.9682 10.8766 93.9682 10.7777C93.9682 10.6788 93.9682 10.6788 93.9682 10.6788L94.2693 10.0856C94.2693 10.0856 94.2693 9.98671 94.3697 9.98671C94.4701 9.98671 94.4701 9.98671 94.6709 10.0856C94.9721 10.2833 95.7752 10.58 96.5784 10.58C97.9839 10.58 98.1847 9.69008 98.1847 8.89907V7.21819C97.7831 7.61369 96.9799 8.10807 96.0764 8.10807C94.7713 8.10807 93.667 7.11931 93.667 4.54854C93.667 1.28564 95.2733 0.395753 96.5784 0.395753C97.2811 0.395753 97.9839 0.692381 98.3854 0.989008H98.4858C98.5862 0.692381 98.787 0.198001 99.0882 0.395753L99.7909 0.791256L99.8913 0.890132C99.8913 0.890132 99.8913 0.989008 99.7909 1.08788C99.5901 1.48339 99.3894 1.97777 99.3894 2.47215V5.14179H99.289Z" fill="white"/>
            <path fill-rule="evenodd" clip-rule="evenodd" d="M103.203 1.38426C103.605 0.889886 104.107 0.296631 104.91 0.296631C105.111 0.296631 105.312 0.395507 105.512 0.395507C105.713 0.494382 105.713 0.593258 105.613 0.593258L105.211 1.48314C105.211 1.58202 105.211 1.58202 105.111 1.58202C105.111 1.58202 105.01 1.58202 104.91 1.48314C104.81 1.38426 104.709 1.38426 104.609 1.38426C104.107 1.38426 103.605 1.97752 103.304 2.37302L103.003 2.66965V7.91007C103.003 8.00894 103.003 8.10782 102.802 8.10782H101.999C101.798 8.10782 101.798 8.00894 101.798 7.91007V2.57077C101.798 2.0764 101.697 1.68089 101.497 1.38426L101.396 1.18651C101.396 1.08764 101.296 1.08764 101.296 0.988762C101.296 0.889886 101.296 0.889886 101.396 0.889886L101.999 0.494382C102.099 0.494382 102.099 0.395507 102.099 0.395507C102.199 0.395507 102.3 0.593258 102.4 0.692134C102.601 1.08764 102.701 1.48314 102.802 1.77977L103.203 1.38426Z" fill="white"/>
            <path fill-rule="evenodd" clip-rule="evenodd" d="M107.319 4.35054C107.319 5.14155 107.419 7.41569 109.126 7.41569C110.933 7.41569 111.033 5.14155 111.033 4.35054C111.033 3.55953 110.933 1.28539 109.126 1.28539C107.419 1.28539 107.319 3.55953 107.319 4.35054ZM112.339 4.35054C112.339 7.51457 110.532 8.40445 109.226 8.40445C107.821 8.40445 106.114 7.51457 106.114 4.35054C106.114 1.18651 107.921 0.296631 109.226 0.296631C110.532 0.296631 112.339 1.18651 112.339 4.35054Z" fill="white"/>
            <path fill-rule="evenodd" clip-rule="evenodd" d="M118.665 7.51481C117.762 8.20694 117.059 8.50357 116.356 8.50357C114.348 8.50357 114.147 7.21818 114.147 6.13055V0.791255C114.147 0.692379 114.147 0.593504 114.248 0.593504L115.151 0.395752C115.252 0.395752 115.252 0.395752 115.252 0.395752C115.352 0.395752 115.352 0.494628 115.352 0.494628V6.13055C115.352 7.11931 115.955 7.41593 116.557 7.41593C117.26 7.41593 117.962 6.92156 118.464 6.62493V0.791255C118.464 0.692379 118.464 0.593504 118.565 0.593504L119.468 0.395752C119.569 0.395752 119.569 0.395752 119.569 0.395752C119.669 0.395752 119.669 0.494628 119.669 0.494628V6.52605C119.669 6.7238 119.669 6.92156 119.769 7.11931C119.87 7.31706 119.97 7.51481 119.97 7.61369C119.97 7.71256 120.071 7.81144 120.071 7.81144C120.071 7.91031 119.97 7.91031 119.97 7.91031L119.368 8.30582C119.267 8.40469 119.167 8.40469 118.966 8.10807C118.766 7.81144 118.766 7.61369 118.665 7.51481Z" fill="white"/>
            <path fill-rule="evenodd" clip-rule="evenodd" d="M123.381 6.82268C123.783 7.11931 124.486 7.31706 125.088 7.31706C126.594 7.31706 126.694 5.83392 126.694 4.25191C126.694 2.76877 126.594 1.38451 125.088 1.38451C124.486 1.38451 123.783 1.87889 123.381 2.17552V6.82268ZM122.177 2.6699C122.177 2.37327 122.177 1.87889 121.775 1.18676C121.675 1.08788 121.675 0.989007 121.675 0.989007C121.675 0.890131 121.675 0.890131 121.775 0.890131L122.478 0.494628C122.578 0.494628 122.679 0.395752 122.779 0.494628C122.98 0.692379 123.181 0.989007 123.181 1.38451L123.281 1.28563C123.683 0.989007 124.486 0.395752 125.389 0.395752C126.192 0.395752 128 0.791255 128 4.44966C128 8.10806 126.192 8.60244 125.189 8.60244C124.285 8.60244 123.683 8.20694 123.482 8.00919V11.2721C123.482 11.2721 123.482 11.4698 123.381 11.4698L122.578 11.6676C122.478 11.6676 122.277 11.7665 122.277 11.4698V2.6699H122.177Z" fill="white"/>
            <path d="M88.7463 0.593262H88.3447V43.5054H88.7463V0.593262Z" fill="white"/>
            <path fill-rule="evenodd" clip-rule="evenodd" d="M6.7263 33.8159C6.6259 34.3103 6.52551 35.0024 6.52551 35.7934H6.02355V35.2002C6.02355 34.8047 5.92316 34.6069 5.92316 34.4092C5.82276 34.3103 5.52159 34.1125 5.12002 34.0137C4.71845 33.8159 4.21649 33.8159 3.81491 33.8159C3.01177 33.8159 2.40942 34.0137 2.00785 34.4092C1.60628 34.8047 1.3051 35.299 1.3051 35.8923C1.3051 36.2878 1.40549 36.5844 1.60628 36.8811C1.80707 37.1777 2.00785 37.3754 2.30903 37.4743C2.6102 37.5732 3.21256 37.6721 4.21648 37.7709C5.22041 37.8698 5.82276 37.9687 6.22433 38.1664C6.52551 38.3642 6.82669 38.562 7.02747 38.9575C7.22826 39.353 7.32865 39.7485 7.32865 40.2428C7.32865 41.2316 6.92708 42.0226 6.12394 42.7147C5.3208 43.4069 4.21649 43.8024 2.91138 43.8024C2.40942 43.8024 2.00785 43.8024 1.50589 43.7035C1.00392 43.5057 0.602355 43.4069 0.100392 43.2091C0.200785 42.6159 0.200785 41.9237 0.200785 40.935H0.702747V41.3305C0.702747 41.8249 0.702747 42.1215 0.80314 42.2204C0.80314 42.3192 1.00392 42.4181 1.10432 42.6159C1.4055 42.8136 1.70667 42.9125 2.00785 43.0114C2.40942 43.1102 2.7106 43.1102 3.21256 43.1102C4.11609 43.1102 4.81884 42.9125 5.3208 42.4181C5.82276 42.0226 6.02355 41.5282 6.02355 40.8361C6.02355 40.4406 5.92316 40.144 5.72237 39.8473C5.52159 39.5507 5.3208 39.353 5.01962 39.2541C4.71845 39.1552 4.11609 39.0563 3.31295 38.9575C2.20863 38.8586 1.50589 38.7597 1.10432 38.562C0.702748 38.3642 0.40157 38.0676 0.200785 37.7709C0.100392 37.3754 0 36.8811 0 36.3867C0 35.3979 0.301178 34.7058 1.00392 34.1125C1.70667 33.5193 2.6102 33.2227 3.81491 33.2227C4.31688 33.2227 4.81884 33.2227 5.22041 33.4204C5.72237 33.4204 6.22433 33.6182 6.7263 33.8159Z" fill="white"/>
            <path fill-rule="evenodd" clip-rule="evenodd" d="M12.8515 34.0134C12.7511 34.7056 12.7511 35.4966 12.7511 36.2876V40.4404C12.7511 41.9235 12.7511 42.8134 12.8515 43.0111C12.9519 43.2089 13.1526 43.2089 13.6546 43.2089H14.1566V43.7033C13.3534 43.7033 12.5503 43.7033 12.0483 43.7033C11.446 43.7033 10.7432 43.7033 9.94008 43.7033V43.2089H10.5424C10.8436 43.2089 11.0444 43.2089 11.1448 43.11C11.2452 43.0111 11.3456 42.8134 11.3456 42.6156C11.3456 42.0224 11.446 41.3302 11.446 40.4404V36.2876C11.446 35.4966 11.446 34.7056 11.3456 34.0134H10.6428C9.43812 34.0134 8.83576 34.0134 8.63498 34.1123C8.53459 34.2112 8.43419 34.4089 8.43419 34.8044L8.3338 35.7932H7.83184V34.9033C7.83184 34.6067 7.83184 34.0134 7.73145 33.4202C10.3417 33.4202 11.8475 33.4202 12.3495 33.4202H16.3652C16.2648 34.2112 16.2648 35.0022 16.1644 35.7932H15.6625L15.5621 34.8044C15.5621 34.5078 15.4617 34.31 15.4617 34.2112C15.3613 34.1123 15.2609 34.1123 15.0601 34.1123C14.5581 34.1123 13.9558 34.0134 13.253 34.0134H12.8515Z" fill="white"/>
            <path fill-rule="evenodd" clip-rule="evenodd" d="M20.1801 39.5507H23.7943L21.9872 35.2002L20.1801 39.5507ZM24.0954 40.144H19.9794L19.4774 41.3305C19.1762 42.1215 18.9754 42.6159 18.9754 42.7147C18.9754 42.8136 18.9754 42.9125 19.0758 42.9125C19.1762 42.9125 19.2766 43.0114 19.5778 43.0114L20.2805 43.1102V43.6046C19.7786 43.6046 19.2766 43.6046 18.6743 43.6046C17.9715 43.6046 17.3691 43.6046 16.8672 43.6046V43.1102H17.068C17.3692 43.1102 17.5699 43.1102 17.7707 43.0114C17.8711 42.9125 17.9715 42.8136 18.0719 42.6159C18.3731 41.9237 18.7746 41.1327 19.0758 40.3417L21.0837 35.7934C21.5856 34.6069 21.9872 33.717 22.188 33.2227H22.69L26.3041 41.726C26.5049 42.3192 26.7057 42.6159 26.806 42.8136C26.9064 42.9125 27.0068 43.0114 27.1072 43.1102C27.2076 43.2091 27.4084 43.2091 27.81 43.2091V43.7035C27.2076 43.7035 26.6053 43.7035 26.0029 43.7035C25.5009 43.7035 24.7982 43.7035 23.8947 43.7035V43.2091H24.5974C24.8986 43.2091 24.999 43.2091 24.999 43.1102C25.0994 43.0114 25.0994 43.0114 25.0994 42.9125C25.0994 42.8136 24.999 42.6159 24.8986 42.2204L24.0954 40.144Z" fill="white"/>
            <path fill-rule="evenodd" clip-rule="evenodd" d="M30.4192 34.9033V39.946C30.4192 41.0336 30.4192 41.9235 30.5196 42.319C30.5196 42.6156 30.62 42.9122 30.7204 42.9122C30.8207 43.0111 31.0215 43.0111 31.4231 43.11H31.9251V43.6044C31.4231 43.6044 30.9211 43.6044 30.5196 43.6044C30.2184 43.6044 29.5156 43.6044 28.5117 43.6044V43.11H29.0137C29.3149 43.11 29.5156 43.11 29.616 43.0111C29.7164 42.9122 29.8168 42.7145 29.8168 42.5167C29.9172 42.0224 29.9172 41.2314 29.9172 40.3415V36.7819C29.9172 36.0898 29.9172 35.3977 29.9172 34.8044C29.9172 34.5078 29.9172 34.31 29.8168 34.2112C29.7164 34.1123 29.616 34.0134 29.5156 33.9145C29.4153 33.8157 29.2145 33.8157 29.0137 33.8157H28.6121V33.3213C29.2145 33.3213 29.7164 33.3213 30.0176 33.3213C30.3188 33.3213 30.7204 33.3213 31.1219 33.3213C31.6239 33.9145 32.0255 34.5078 32.427 35.0022C32.8286 35.5954 33.3306 36.0898 33.7321 36.6831L36.1415 39.7482C37.0451 40.8359 37.6474 41.6269 38.049 42.0224V37.3752C38.049 35.3977 38.049 34.4089 37.9486 34.2112C37.8482 34.0134 37.6474 33.9145 37.1455 33.9145H36.6435V33.4202C37.4466 33.4202 38.049 33.4202 38.4506 33.4202C38.8521 33.4202 39.4545 33.4202 40.1572 33.4202V33.9145H39.5549C39.1533 33.9145 38.8521 34.0134 38.7517 34.4089C38.7517 34.6067 38.6514 35.6943 38.6514 37.5729V40.8359C38.6514 41.7257 38.6514 42.8134 38.7517 43.9999C38.049 43.901 37.7478 43.8021 37.6474 43.8021C37.547 43.8021 37.4466 43.7032 37.3463 43.6044C36.8443 43.0111 36.2419 42.319 35.6396 41.6269L30.4192 34.9033Z" fill="white"/>
            <path fill-rule="evenodd" clip-rule="evenodd" d="M43.3686 42.8136C43.971 42.9125 44.5733 42.9125 45.0753 42.9125C46.3804 42.9125 47.4847 42.6159 48.1874 41.8249C49.091 41.0338 49.4925 39.7485 49.4925 38.1664C49.4925 36.7822 49.091 35.6946 48.3882 34.9035C47.6855 34.2114 46.5812 33.8159 45.0753 33.8159C44.5733 33.8159 43.971 33.9148 43.2682 34.0137C43.1678 34.508 43.1678 35.0024 43.1678 35.5957V40.3417C43.2682 41.2316 43.3686 42.0226 43.3686 42.8136ZM41.8627 42.8136C41.9631 42.0226 41.9631 40.7372 41.9631 38.8586V36.7822C41.9631 35.8923 41.9631 35.2002 41.8627 34.6069C41.8627 34.2114 41.7623 34.0137 41.7623 34.0137C41.6619 33.9148 41.4611 33.9148 41.16 33.8159L40.5576 33.717V33.2227C41.3608 33.2227 41.8627 33.2227 42.1639 33.2227H44.0714H45.6776C46.28 33.2227 46.9827 33.3215 47.5851 33.4204C48.2878 33.5193 48.8902 33.8159 49.3922 34.2114C49.8941 34.6069 50.3961 35.1013 50.5969 35.7934C50.898 36.3867 50.9984 37.0788 50.9984 37.8698C50.9984 39.4518 50.4965 40.8361 49.3922 41.9237C48.2878 43.0114 46.8823 43.5057 45.0753 43.5057H44.1717C43.2682 43.5057 42.7663 43.4069 42.5655 43.4069C42.1639 43.4069 41.6619 43.4069 41.0596 43.5057V43.1102L41.8627 42.8136Z" fill="white"/>
            <path fill-rule="evenodd" clip-rule="evenodd" d="M55.3169 39.5507H58.931L57.1239 35.2002L55.3169 39.5507ZM59.1318 40.144H55.0157L54.5137 41.3305C54.2125 42.1215 54.0118 42.6159 54.0118 42.7147C54.0118 42.8136 54.0118 42.9125 54.1122 42.9125C54.2125 42.9125 54.3129 43.0114 54.6141 43.0114L55.3169 43.1102V43.6046C54.8149 43.6046 54.3129 43.6046 53.811 43.6046C53.1082 43.6046 52.5059 43.6046 52.0039 43.6046V43.1102H52.2047C52.5059 43.1102 52.807 43.1102 52.807 43.0114C52.9074 42.9125 53.0078 42.8136 53.1082 42.6159C53.4094 41.9237 53.811 41.1327 54.1122 40.3417L56.12 35.7934C56.622 34.6069 57.0235 33.717 57.2243 33.2227H57.7263L61.3404 41.726C61.5412 42.3192 61.742 42.6159 61.8424 42.8136C61.9428 42.9125 62.0432 43.0114 62.1435 43.1102C62.2439 43.2091 62.4447 43.2091 62.8463 43.2091V43.7035C62.2439 43.7035 61.6416 43.7035 61.0392 43.7035C60.5373 43.7035 59.8345 43.7035 58.931 43.7035V43.2091H59.6337C59.9349 43.2091 60.0353 43.2091 60.1357 43.1102C60.2361 43.0114 60.2361 43.0114 60.2361 42.9125C60.2361 42.8136 60.1357 42.6159 60.0353 42.2204L59.1318 40.144Z" fill="white"/>
            <path fill-rule="evenodd" clip-rule="evenodd" d="M68.77 38.3642C69.272 39.0563 69.7739 39.8473 70.4767 40.7372L71.8822 42.517C72.1834 42.8136 72.2838 43.0114 72.3841 43.0114C72.4845 43.0114 72.5849 43.1102 72.6853 43.1102H72.8861V43.6046C72.4845 43.6046 72.1834 43.6046 71.8822 43.6046C71.581 43.6046 71.2798 43.6046 70.9787 43.6046L68.4688 40.144C67.9669 39.5507 67.4649 38.8586 66.963 38.2653L67.0633 37.9687C67.3645 37.9687 67.5653 37.9687 67.6657 37.9687C68.4688 37.9687 69.0712 37.7709 69.5732 37.3754C69.9747 36.9799 70.2759 36.3867 70.2759 35.6946C70.2759 35.1013 70.0751 34.6069 69.6736 34.2114C69.272 33.8159 68.77 33.717 67.9669 33.717C67.4649 33.717 66.963 33.8159 66.461 34.0137C66.2602 34.8047 66.2602 35.6946 66.2602 36.4856V39.9462C66.2602 41.6271 66.2602 42.6159 66.3606 42.8136C66.461 43.0114 66.6618 43.1102 67.1637 43.1102H67.7661V43.6046C66.963 43.6046 66.3606 43.6046 65.7582 43.6046C65.3567 43.6046 64.6539 43.6046 63.5496 43.6046V43.1102H64.0516C64.4531 43.1102 64.6539 43.0114 64.7543 42.8136C64.8547 42.6159 64.8547 41.726 64.8547 39.9462V36.4856C64.8547 35.0024 64.7543 34.1125 64.7543 34.0137C64.6539 33.8159 64.3527 33.717 63.8508 33.717H63.4492V33.2227C64.3528 33.2227 65.0555 33.2227 65.4571 33.2227C65.7582 33.2227 66.2602 33.2227 66.8626 33.2227C67.5653 33.2227 68.0673 33.2227 68.3684 33.2227C69.1716 33.2227 69.8743 33.3215 70.2759 33.5193C70.6775 33.717 71.079 33.9148 71.2798 34.3103C71.4806 34.6069 71.581 35.0024 71.581 35.4968C71.581 36.1889 71.3802 36.7822 70.8783 37.2766C70.3763 37.8698 69.6736 38.1664 68.77 38.3642Z" fill="white"/>
            <path fill-rule="evenodd" clip-rule="evenodd" d="M76.0981 42.8136C76.7005 42.9125 77.3028 42.9125 77.8048 42.9125C79.1099 42.9125 80.2142 42.6159 80.9169 41.8249C81.8205 41.0338 82.222 39.7485 82.222 38.1664C82.222 36.7822 81.8205 35.6946 81.1177 34.9035C80.415 34.2114 79.3107 33.8159 77.8048 33.8159C77.3028 33.8159 76.7005 33.9148 75.9977 34.0137C75.8973 34.508 75.8973 35.0024 75.8973 35.5957V40.3417C75.9977 41.2316 75.9977 42.0226 76.0981 42.8136ZM74.4918 42.8136C74.5922 42.0226 74.5922 40.7372 74.5922 38.8586V36.7822C74.5922 35.8923 74.5922 35.2002 74.4918 34.6069C74.4918 34.2114 74.3914 34.0137 74.3914 34.0137C74.291 33.9148 74.0902 33.9148 73.7891 33.8159L73.2871 33.717V33.2227C74.0902 33.2227 74.5922 33.2227 74.8934 33.2227H76.8008H78.4071C79.0095 33.2227 79.7122 33.3215 80.3146 33.4204C81.0173 33.5193 81.6197 33.8159 82.1217 34.2114C82.6236 34.6069 83.1256 35.1013 83.3264 35.7934C83.6275 36.3867 83.7279 37.0788 83.7279 37.8698C83.7279 39.4518 83.226 40.8361 82.1217 41.9237C81.0173 43.0114 79.6118 43.5057 77.9052 43.5057H77.0016C76.0981 43.5057 75.5961 43.5057 75.295 43.5057C74.8934 43.5057 74.3914 43.5057 73.7891 43.6046V43.2091L74.4918 42.8136Z" fill="white"/>
        </g>
    </symbol>
     <symbol id="geo" width="17" height="24" viewBox="0 0 17 24" fill="none">
        <g>
            <path d="M2.06251 9.14286C2.96889 15.2428 8.50001 22 8.50001 22C8.50001 22 14.0551 15.0826 14.9375 9.14286C15.4327 5.80952 12.9566 2 8.49989 2C4.04315 2 1.56721 5.80952 2.06251 9.14286Z" stroke="white" stroke-width="3" stroke-linejoin="round"/>
        </g>
    </symbol>
    <symbol id="search" width="23" height="22" viewBox="0 0 23 22" fill="none">
        <g>
            <path d="M18.4998 9.92035C18.4998 14.5595 14.7056 18.3407 9.99992 18.3407C5.29422 18.3407 1.5 14.5595 1.5 9.92035C1.5 5.28119 5.29422 1.5 9.99992 1.5C14.7056 1.5 18.4998 5.28119 18.4998 9.92035Z" stroke="white" stroke-width="3"/>
            <line y1="-1.5" x2="6.72404" y2="-1.5" transform="matrix(0.708191 0.706021 -0.708191 0.706021 15.2383 17.2527)" stroke="white" stroke-width="3"/>
        </g>
    </symbol>
    <symbol id="lines" width="41" height="27" viewBox="0 0 41 27" fill="none">
        <g>
            <line y1="1" x2="41" y2="1" stroke="black" stroke-width="2"/>
            <path d="M0 13H31" stroke="black" stroke-width="2"/>
            <path d="M0 26H20.5" stroke="black" stroke-width="2"/>
        </g>
    </symbol>
    

     <symbol id="facebook" width="22" height="22" viewBox="0 0 22 22" fill="none">
        <g>
            <path d="M20.7862 0H1.21379C0.891875 0 0.583142 0.127881 0.355512 0.355512C0.127881 0.583142 0 0.891875 0 1.21379L0 20.7862C0 21.1081 0.127881 21.4169 0.355512 21.6445C0.583142 21.8721 0.891875 22 1.21379 22H11.7586V13.4921H8.89483V10.1617H11.7586V7.71138C11.7586 4.87034 13.4959 3.32276 16.0297 3.32276C16.8835 3.3209 17.7369 3.36394 18.5862 3.45172V6.42172H16.8414C15.4607 6.42172 15.1914 7.07414 15.1914 8.03759V10.1579H18.4914L18.0628 13.4883H15.1724V22H20.7862C21.1081 22 21.4169 21.8721 21.6445 21.6445C21.8721 21.4169 22 21.1081 22 20.7862V1.21379C22 0.891875 21.8721 0.583142 21.6445 0.355512C21.4169 0.127881 21.1081 0 20.7862 0Z" fill="black"/>
        </g>
    </symbol>
    

     <symbol id="insta" width="22" height="22" viewBox="0 0 22 22" fill="none">
        <g>
            <path d="M10.9956 1.98214C13.9333 1.98214 14.2782 1.99524 15.4393 2.04763C16.5131 2.09565 17.0937 2.27466 17.4821 2.42747C17.9972 2.6283 18.3639 2.86406 18.748 3.24826C19.1321 3.63247 19.3722 3.99921 19.5687 4.51439C19.7171 4.90296 19.9004 5.48363 19.9484 6.55765C20.0008 7.71899 20.0139 8.0639 20.0139 11.0022C20.0139 13.9405 20.0008 14.2854 19.9484 15.4467C19.9004 16.5207 19.7214 17.1014 19.5687 17.49C19.3679 18.0052 19.1321 18.3719 18.748 18.7561C18.3639 19.1403 17.9972 19.3804 17.4821 19.5769C17.0937 19.7253 16.5131 19.9087 15.4393 19.9567C14.2782 20.0091 13.9333 20.0222 10.9956 20.0222C8.05794 20.0222 7.7131 20.0091 6.55198 19.9567C5.47817 19.9087 4.89762 19.7297 4.50913 19.5769C3.99405 19.3761 3.62738 19.1403 3.24325 18.7561C2.85913 18.3719 2.61905 18.0052 2.42262 17.49C2.27421 17.1014 2.09087 16.5207 2.04286 15.4467C1.99048 14.2854 1.97738 13.9405 1.97738 11.0022C1.97738 8.0639 1.99048 7.71899 2.04286 6.55765C2.09087 5.48363 2.26984 4.90296 2.42262 4.51439C2.62341 3.99921 2.85913 3.63247 3.24325 3.24826C3.62738 2.86406 3.99405 2.62393 4.50913 2.42747C4.89762 2.27902 5.47817 2.09565 6.55198 2.04763C7.7131 1.99087 8.0623 1.98214 10.9956 1.98214ZM10.9956 0C8.00992 0 7.63452 0.0130978 6.46032 0.0654892C5.29048 0.117881 4.49167 0.305616 3.79325 0.576305C3.06865 0.855725 2.45754 1.23556 1.84643 1.84679C1.23532 2.45803 0.859921 3.07363 0.57619 3.79401C0.305556 4.49256 0.117857 5.29153 0.0654762 6.46597C0.0130952 7.63604 0 8.01151 0 10.9978C0 13.9841 0.0130952 14.3596 0.0654762 15.534C0.117857 16.7041 0.305556 17.5031 0.57619 18.206C0.855556 18.9307 1.23532 19.542 1.84643 20.1532C2.45754 20.7644 3.07302 21.1399 3.79325 21.4237C4.49167 21.6944 5.29048 21.8821 6.46468 21.9345C7.63889 21.9869 8.00992 22 11 22C13.9901 22 14.3611 21.9869 15.5353 21.9345C16.7052 21.8821 17.504 21.6944 18.2067 21.4237C18.9313 21.1443 19.5425 20.7644 20.1536 20.1532C20.7647 19.542 21.1401 18.9264 21.4238 18.206C21.6944 17.5074 21.8821 16.7085 21.9345 15.534C21.9869 14.3596 22 13.9885 22 10.9978C22 8.00714 21.9869 7.63604 21.9345 6.4616C21.8821 5.29153 21.6944 4.49256 21.4238 3.78964C21.1444 3.06489 20.7647 2.45366 20.1536 1.84243C19.5425 1.2312 18.927 0.855725 18.2067 0.571939C17.5083 0.30125 16.7095 0.113515 15.5353 0.0611232C14.3567 0.0130978 13.9813 0 10.9956 0Z" fill="black"/>
            <path d="M10.9951 5.35254C7.87843 5.35254 5.34668 7.88042 5.34668 11.0021C5.34668 14.1237 7.87406 16.6516 10.9951 16.6516C14.1161 16.6516 16.6435 14.1237 16.6435 11.0021C16.6435 7.88042 14.1161 5.35254 10.9951 5.35254ZM10.9951 14.6651C8.9697 14.6651 7.32843 13.0235 7.32843 10.9977C7.32843 8.97191 8.9697 7.33031 10.9951 7.33031C13.0205 7.33031 14.6618 8.97191 14.6618 10.9977C14.6618 13.0235 13.0205 14.6651 10.9951 14.6651Z" fill="black"/>
            <path d="M16.8671 6.44416C17.5951 6.44416 18.1853 5.85384 18.1853 5.12564C18.1853 4.39745 17.5951 3.80713 16.8671 3.80713C16.139 3.80713 15.5488 4.39745 15.5488 5.12564C15.5488 5.85384 16.139 6.44416 16.8671 6.44416Z" fill="black"/>
        </g>
    </symbol>
    

     <symbol id="youtube" width="30" height="22" viewBox="0 0 30 22" fill="none">
        <g>
           <path d="M16.9563 21.998C16.3116 21.998 15.4225 22.0041 14.5363 21.9949C13.5059 21.9857 12.4755 21.9765 11.448 21.9489C10.0408 21.9091 8.63356 21.8753 7.23221 21.7864C6.1017 21.7159 4.97414 21.6116 3.85247 21.4552C2.37458 21.2498 1.32062 20.4157 0.755365 18.9622C0.525731 18.3764 0.446243 17.7509 0.360866 17.1284C0.196001 15.9232 0.104737 14.712 0.0664644 13.4976C0.0370242 12.5194 -0.0159681 11.5381 0.00464002 10.5568C0.0340802 9.21063 0.0988486 7.86137 0.196001 6.51823C0.26077 5.64428 0.381474 4.77339 0.525731 3.90863C0.775973 2.41217 1.56791 1.34196 2.93688 0.774654C3.41087 0.578397 3.91135 0.492534 4.41478 0.45267C5.80141 0.336142 7.19099 0.216548 8.58057 0.149085C10.0791 0.0754885 11.5805 0.0570894 13.079 0.0233578C13.9328 0.00495869 14.7866 -0.00424085 15.6403 0.00189218C16.6119 0.0080252 17.5834 0.0202913 18.552 0.0478899C19.9592 0.0908211 21.3664 0.124553 22.7678 0.210415C23.8983 0.280945 25.0259 0.385206 26.1475 0.541599C27.6254 0.747055 28.6794 1.58115 29.2446 3.03467C29.4743 3.62038 29.5538 4.24595 29.6391 4.86845C29.804 6.07359 29.8953 7.28486 29.9335 8.4992C29.963 9.47742 30.016 10.4587 29.9954 11.44C29.9659 12.7862 29.9012 14.1355 29.804 15.4786C29.7392 16.3525 29.6185 17.2234 29.4743 18.0882C29.224 19.5847 28.4321 20.6518 27.0631 21.2222C26.5803 21.4215 26.068 21.5074 25.5558 21.5472C24.1691 21.6607 22.7796 21.7772 21.39 21.8477C19.9916 21.9213 18.5932 21.9459 16.9563 21.998ZM11.9397 6.34958C11.9397 9.45902 11.9397 12.5409 11.9397 15.6472C14.5599 14.0956 17.1624 12.5562 19.7943 10.9984C17.1565 9.43756 14.5569 7.89817 11.9397 6.34958Z" fill="black"/>
            <path d="M11.9404 6.34961C14.5577 7.8982 17.1572 9.43759 19.7951 10.9984C17.1631 12.5562 14.5606 14.0956 11.9404 15.6473C11.9404 12.5409 11.9404 9.45599 11.9404 6.34961Z" fill="#E0E0E0"/>
        </g>
    </symbol>

    <symbol id="21" width="39" height="31" viewBox="0 0 39 31" fill="none">
        <g>
           <path d="M0.0909605 31V29.6667C2.48625 27.127 4.57834 24.8571 6.36723 22.8571C8.15612 20.8254 9.64181 18.9841 10.8243 17.3333C12.0371 15.6508 12.9315 14.1111 13.5076 12.7143C14.114 11.2857 14.4172 9.90476 14.4172 8.57143C14.4172 6.66667 13.9018 5.06349 12.8709 3.7619C11.8703 2.46032 10.2785 1.80952 8.09548 1.80952C6.76139 1.80952 5.51827 2.19048 4.3661 2.95238C3.21394 3.71429 2.19821 4.66667 1.31893 5.80952L0 4.47619C1.09153 3.20635 2.28917 2.14286 3.59294 1.28571C4.92702 0.428571 6.48851 0 8.2774 0C10.8849 0 12.9012 0.777777 14.3263 2.33333C15.7513 3.88889 16.4638 5.95238 16.4638 8.52381C16.4638 10.0476 16.1455 11.5714 15.5088 13.0952C14.872 14.5873 13.9776 16.1746 12.8254 17.8571C11.6733 19.5079 10.2634 21.2857 8.59576 23.1905C6.95847 25.0635 5.13927 27.1111 3.13814 29.3333C3.92646 29.2698 4.72994 29.2222 5.54859 29.1905C6.39755 29.127 7.21619 29.0952 8.00452 29.0952H17.9192V31H0.0909605Z" fill="#88BF1F"/>
            <path d="M23.8096 31V29.1429H30.6316V3.90476H25.4469V2.47619C26.6294 2.25397 27.6754 1.98413 28.585 1.66666C29.525 1.3492 30.3436 0.984126 31.041 0.571428H32.6782V29.1429H39V31H23.8096Z" fill="#88BF1F"/>
        </g>
    </symbol>

    <symbol id="location" width="28" height="42" viewBox="0 0 28 42" fill="none">
        <g>
           <path d="M1.12502 15.2857C2.93777 27.4856 14 41 14 41C14 41 25.1103 27.1651 26.875 15.2857C27.8654 8.61905 22.9132 1 13.9998 1C5.08631 1 0.134428 8.61905 1.12502 15.2857Z" stroke="#8ABF42" stroke-width="2" stroke-linejoin="round"/>
            <circle cx="14" cy="14" r="7" stroke="#8ABF42" stroke-width="2"/>
            </g>
    </symbol>

    <symbol id="scope" width="35" height="55" viewBox="0 0 35 55" fill="none">
        <g>
           <path d="M8.77707 45.8836L1 53.8H34L30.4836 45.8836H8.77707Z" fill="white"/>
            <path d="M30.4836 45.8836C30.4836 45.8836 30.4836 40.2137 30.4836 32.5952C30.4836 21.8514 23.4508 16.4795 23.4508 16.4795H19.2101M30.4836 45.8836L34 53.8H1L8.77707 45.8836H30.4836ZM19.2101 16.4795L27.5082 7.71487L25.8852 6.01849L22.9098 2.90845L16.6885 9.41126L9.92623 16.4795M19.2101 16.4795H9.92623M18.8525 45.8836V34.857M18.8525 34.857H3.43443M18.8525 34.857V23.8305H6.68033V16.4795H9.92623" stroke="#8ABF42" stroke-width="2" stroke-linejoin="round"/>
            <path d="M24.8337 5.45301L29.1115 1" stroke="#8ABF42" stroke-width="2"/>
            <path d="M7.1106 39.8049H11.3884M15.6662 39.8049H11.3884M11.3884 39.8049V45.5302" stroke="#8ABF42" stroke-width="2"/>
            <path d="M11.3894 30.2626V23.9011" stroke="#8ABF42" stroke-width="2"/>
        </g>
    </symbol>

    <symbol id="ok" width="41" height="41" viewBox="0 0 41 41" fill="none">
        <g>
           <path d="M9.56104 20L18.1376 28.5854L31.4391 15.2703" stroke="#8ABF42" stroke-width="2"/>
            <circle cx="20.5" cy="20.5" r="19.5" stroke="#8ABF42" stroke-width="2"/>
        </g>
    </symbol>

    <symbol id="like" width="39" height="33" viewBox="0 0 39 33" fill="none">
        <g>
           <path d="M10.5 28.4999C14 29.8543 16.4888 30.7237 20.5 31.3686C25.8208 32.2241 32 31.7374 34 31.3686C36 30.9999 37.1273 30.3621 37.1998 28.8686C37.2456 27.926 36.7998 27.1686 36.1998 26.6686C36.7998 26.0686 37.1998 25.4124 37.1998 24.4686C37.1998 23.5249 36.7998 22.7686 36.1998 22.2686C36.7998 21.6686 37.1998 21.0124 37.1998 20.0686C37.1998 19.1249 36.7998 18.3686 36.1998 17.8686C36.7998 17.2686 37.2045 16.6124 37.1998 15.6686C37.1934 14.3793 36.3998 13.3686 35.2998 12.9686C35.2998 12.9686 34.7528 12.8396 34.3998 12.7686C30.9923 12.0841 25.5 12.7686 25.5 12.7686C25.9 11.9686 27 10.3686 27 7.36855C27 4.36855 26.5614 1.53259 24.6998 1.16865C23.8366 0.999893 23.0964 0.961142 22.2998 1.46865C21.4581 2.00484 20.9997 2.67071 20.9998 3.66865C21 4.9999 21.0117 6.67343 20.5 8.4999C20.0034 10.2726 19.7643 11.2161 18.5 12.7686C17.6143 13.8563 16.5839 14.804 15.2998 15.3686C13.5839 16.1229 10.5 15.3686 10.5 15.3686" stroke="#8ABF42" stroke-width="2"/>
            <rect x="1" y="12" width="10" height="20" rx="2" stroke="#8ABF42" stroke-width="2"/>
        </g>
    </symbol>

    <symbol id="flag" width="34" height="41" viewBox="0 0 34 41" fill="none">
        <g>
           <path d="M5 40L5.00002 -2.18558e-07M-7.29214e-07 40L10 40M5.00002 5L31 5L23 13L31 21L5.00002 21L5.00002 5Z" stroke="#8ABF42" stroke-width="2"/>
        </g>
    </symbol>



    </svg>
